<svg width="24" height="24" viewBox="0 0 24 24" fill="none" xmlns="http://www.w3.org/2000/svg">
<path d="M22.5249 1.5369C21.674 0.662274 20.5554 0.125322 19.3634 0.0193574C18.1713 -0.0866071 16.9813 0.28818 16 0.999939C19.1542 2.36563 21.4712 4.82242 23 8.00001C23.5901 6.9924 24.0981 5.80818 23.9649 4.63658C23.8317 3.46497 23.3247 2.37361 22.5249 1.5369Z" fill="#F2F2F2"/>
<path d="M8 1.00006C7.05073 0.246112 5.85806 -0.057842 4.64757 0.00712125C3.43708 0.0720845 2.29224 0.577906 1.42911 1.42912C0.57311 2.29082 0.0661344 3.43875 0.00579763 4.65189C-0.0545391 5.86502 0.233713 7.05759 0.999988 7.99999C2.37993 4.9296 4.93491 2.39151 8 1.00006Z" fill="#F2F2F2"/>
<path d="M11.9955 2C9.8201 2.00446 7.69469 2.64847 5.88717 3.85085C4.07964 5.05323 2.67091 6.76018 1.83851 8.75654C1.00611 10.7529 0.787303 12.9494 1.20967 15.069C1.63203 17.1887 2.67666 19.1368 4.2119 20.6677L2.20499 22.6611C2.13213 22.7351 2.07464 22.8225 2.0358 22.9185C1.99696 23.0145 1.97753 23.1171 1.97863 23.2206C1.97972 23.324 2.00132 23.4262 2.04219 23.5214C2.08305 23.6165 2.14239 23.7027 2.2168 23.7751C2.29121 23.8475 2.37925 23.9046 2.47588 23.9432C2.57252 23.9817 2.67586 24.001 2.78 24C2.88414 23.9989 2.98704 23.9774 3.08284 23.9368C3.17863 23.8962 3.26544 23.8373 3.3383 23.7634L5.43178 21.684C7.34623 23.123 9.68409 23.8964 12.0849 23.8851C14.4857 23.8738 16.816 23.0784 18.7167 21.6214L20.8731 23.7634C21.0237 23.8915 21.2173 23.9584 21.4154 23.9508C21.6135 23.9432 21.8014 23.8616 21.9415 23.7224C22.0817 23.5832 22.1638 23.3965 22.1715 23.1998C22.1791 23.0031 22.1117 22.8107 21.9828 22.6611L19.8657 20.5896C21.3794 19.0496 22.4023 17.1005 22.8065 14.986C23.2108 12.8716 22.9784 10.6857 22.1385 8.70179C21.2985 6.71786 19.8883 5.02394 18.0843 3.83193C16.2802 2.63991 14.1623 2.0027 11.9955 2ZM17.8746 15.6256C17.7844 15.8118 17.6237 15.955 17.4275 16.0238C17.2314 16.0927 17.0158 16.0816 16.8278 15.993L11.2085 13.2882V6.44805C11.2085 6.24072 11.2914 6.04188 11.439 5.89528C11.5866 5.74868 11.7868 5.66632 11.9955 5.66632C12.2043 5.66632 12.4044 5.74868 12.552 5.89528C12.6996 6.04188 12.7825 6.24072 12.7825 6.44805V12.311L17.5047 14.5859C17.5989 14.6288 17.6836 14.6898 17.754 14.7653C17.8244 14.8409 17.8791 14.9295 17.915 15.0261C17.9508 15.1227 17.9671 15.2254 17.9628 15.3283C17.9586 15.4312 17.934 15.5322 17.8903 15.6256H17.8746Z" fill="#F2F2F2"/>
</svg>
