<svg width="72" height="32" viewBox="0 0 72 32" fill="none" xmlns="http://www.w3.org/2000/svg">
<rect x="1" y="1" width="70" height="30" rx="15" fill="#F2F2F2" stroke="#D8C292" stroke-width="2"/>
<circle cx="56" cy="16" r="12" fill="#5B5B5B"/>
<path d="M19.158 10.268L19.942 11.122C17.408 11.864 13.264 12.242 9.862 12.382C9.834 12.116 9.708 11.696 9.61 11.458C12.942 11.304 17.03 10.926 19.158 10.268ZM9.624 14.216H20.544V15.224H9.624V14.216ZM8.686 17.506H21.328V18.528H8.686V17.506ZM14.468 11.752H15.56V21.664C15.56 22.406 15.336 22.728 14.804 22.896C14.272 23.064 13.362 23.092 11.878 23.078C11.808 22.784 11.612 22.308 11.444 22.028C12.606 22.07 13.726 22.056 14.034 22.042C14.356 22.042 14.468 21.944 14.468 21.65V11.752ZM22.966 19.396H29.35V20.194H22.966V19.396ZM22.588 12.648H29.574V13.46H22.588V12.648ZM25.626 11.374H26.592V21.678H25.626V11.374ZM22.574 21.706C24.282 21.552 26.9 21.3 29.406 21.034L29.42 21.86C27.04 22.14 24.506 22.434 22.728 22.616L22.574 21.706ZM23.876 16.778V17.814H28.412V16.778H23.876ZM23.876 15.07V16.078H28.412V15.07H23.876ZM22.994 14.342H29.308V18.542H22.994V14.342ZM28.804 10.38L29.336 11.192C27.684 11.556 25.08 11.794 22.98 11.864C22.938 11.64 22.84 11.29 22.728 11.08C24.814 10.968 27.362 10.716 28.804 10.38ZM29.476 13.516H34.53V14.496H29.476V13.516ZM34.124 13.516H35.132C35.132 13.516 35.118 13.908 35.118 14.048C34.964 19.956 34.824 21.916 34.362 22.518C34.11 22.882 33.83 23.008 33.41 23.05C33.018 23.092 32.346 23.092 31.702 23.05C31.674 22.756 31.562 22.322 31.394 22.042C32.08 22.098 32.696 22.112 32.976 22.112C33.2 22.112 33.34 22.07 33.466 21.888C33.816 21.454 33.97 19.438 34.124 13.768V13.516ZM31.17 10.422H32.178C32.164 15.994 32.15 20.698 28.804 23.204C28.636 22.952 28.272 22.616 28.02 22.448C31.226 20.152 31.156 15.714 31.17 10.422Z" fill="#5B5B5B"/>
</svg>
