<svg width="72" height="32" viewBox="0 0 72 32" fill="none" xmlns="http://www.w3.org/2000/svg">
<rect x="1" y="1" width="70" height="30" rx="15" fill="#5B5B5B" stroke="#D8C292" stroke-width="2"/>
<circle cx="16" cy="16" r="12" fill="#F2F2F2"/>
<path d="M38.982 15.266H47.116V16.246H38.982V15.266ZM38.982 18.304H47.116V19.284H38.982V18.304ZM38.982 21.37H47.116V22.35H38.982V21.37ZM38.268 12.158H47.928V23.064H46.836V13.166H39.332V23.134H38.268V12.158ZM42.37 10.226L43.588 10.38C43.28 11.22 42.916 12.13 42.608 12.732L41.67 12.55C41.922 11.892 42.23 10.912 42.37 10.226ZM50.966 19.396H57.35V20.194H50.966V19.396ZM50.588 12.648H57.574V13.46H50.588V12.648ZM53.626 11.374H54.592V21.678H53.626V11.374ZM50.574 21.706C52.282 21.552 54.9 21.3 57.406 21.034L57.42 21.86C55.04 22.14 52.506 22.434 50.728 22.616L50.574 21.706ZM51.876 16.778V17.814H56.412V16.778H51.876ZM51.876 15.07V16.078H56.412V15.07H51.876ZM50.994 14.342H57.308V18.542H50.994V14.342ZM56.804 10.38L57.336 11.192C55.684 11.556 53.08 11.794 50.98 11.864C50.938 11.64 50.84 11.29 50.728 11.08C52.814 10.968 55.362 10.716 56.804 10.38ZM57.476 13.516H62.53V14.496H57.476V13.516ZM62.124 13.516H63.132C63.132 13.516 63.118 13.908 63.118 14.048C62.964 19.956 62.824 21.916 62.362 22.518C62.11 22.882 61.83 23.008 61.41 23.05C61.018 23.092 60.346 23.092 59.702 23.05C59.674 22.756 59.562 22.322 59.394 22.042C60.08 22.098 60.696 22.112 60.976 22.112C61.2 22.112 61.34 22.07 61.466 21.888C61.816 21.454 61.97 19.438 62.124 13.768V13.516ZM59.17 10.422H60.178C60.164 15.994 60.15 20.698 56.804 23.204C56.636 22.952 56.272 22.616 56.02 22.448C59.226 20.152 59.156 15.714 59.17 10.422Z" fill="white"/>
</svg>
