<svg width="18" height="17" viewBox="0 0 18 17" fill="none" xmlns="http://www.w3.org/2000/svg">
<path d="M9 15.9011C13.4183 15.9011 17 12.5555 17 8.42858C17 4.30162 13.4183 0.956055 9 0.956055C4.58172 0.956055 1 4.30162 1 8.42858C1 12.5555 4.58172 15.9011 9 15.9011Z" stroke="#D8C292" stroke-linecap="round" stroke-linejoin="round"/>
<path d="M12.0333 5.62718C11.8371 5.33374 11.552 5.09184 11.2085 4.92735C10.865 4.76286 10.4761 4.68198 10.0833 4.69338H7.91667C7.34203 4.69338 6.79093 4.89014 6.3846 5.24039C5.97827 5.59063 5.75 6.06566 5.75 6.56098C5.75 7.0563 5.97827 7.53133 6.3846 7.88158C6.79093 8.23182 7.34203 8.42859 7.91667 8.42859H10.0833C10.658 8.42859 11.2091 8.62535 11.6154 8.97559C12.0217 9.32584 12.25 9.80087 12.25 10.2962C12.25 10.7915 12.0217 11.2665 11.6154 11.6168C11.2091 11.967 10.658 12.1638 10.0833 12.1638H7.91667C7.52395 12.1752 7.13503 12.0943 6.79154 11.9298C6.44804 11.7653 6.16291 11.5234 5.96667 11.23" stroke="#D8C292" stroke-width="2" stroke-linecap="round" stroke-linejoin="round"/>
<path d="M9 2.82419L9 3.94507M9 12.9121L9 14.033" stroke="#D8C292" stroke-width="2" stroke-linecap="round" stroke-linejoin="round"/>
</svg>
