<svg width="48" height="48" viewBox="0 0 48 48" fill="none" xmlns="http://www.w3.org/2000/svg">
<circle cx="24" cy="24" r="23" fill="#5B5B5B" stroke="#D8C292" stroke-width="2"/>
<path fill-rule="evenodd" clip-rule="evenodd" d="M18 14.4C17.2636 14.4 16.6667 14.9373 16.6667 15.6V32.4C16.6667 33.0628 17.2636 33.6 18 33.6H28.6667C29.4031 33.6 30 34.1372 30 34.8C30 35.4628 29.4031 36 28.6667 36H18C15.7909 36 14 34.3883 14 32.4V15.6C14 13.6118 15.7909 12 18 12H28.6667C29.4031 12 30 12.5373 30 13.2C30 13.8627 29.4031 14.4 28.6667 14.4H18ZM30.3906 18.3515C30.9112 17.8828 31.7555 17.8828 32.2762 18.3515L37.6095 23.1515C38.1302 23.6201 38.1302 24.3799 37.6095 24.8485L32.2762 29.6485C31.7555 30.1171 30.9112 30.1171 30.3906 29.6485C29.8699 29.1799 29.8699 28.4201 30.3906 27.9515L33.4478 25.2H22C21.2636 25.2 20.6667 24.6628 20.6667 24C20.6667 23.3372 21.2636 22.8 22 22.8H33.4478L30.3906 20.0485C29.8699 19.5799 29.8699 18.8201 30.3906 18.3515Z" fill="white"/>
</svg>
