<svg width="48" height="48" viewBox="0 0 48 48" fill="none" xmlns="http://www.w3.org/2000/svg">
<circle cx="24" cy="24" r="23" fill="#5B5B5B" stroke="#D8C292" stroke-width="2"/>
<path d="M33.7103 26.1739L33.9427 23.9952C34.0653 22.8323 34.1474 22.0656 34.0829 21.5826H34.1057C34.5381 21.5825 34.9574 21.4328 35.2941 21.1583C35.6308 20.8839 35.8645 20.5012 35.9566 20.0738C36.0486 19.6465 35.9934 19.2001 35.8001 18.8089C35.6068 18.4176 35.287 18.105 34.8938 17.923C34.5007 17.7409 34.0578 17.7004 33.6387 17.808C33.2196 17.9157 32.8496 18.1651 32.59 18.5149C32.3303 18.8647 32.1968 19.2938 32.2115 19.7309C32.2261 20.1681 32.3882 20.587 32.6707 20.9181C32.2589 21.175 31.7207 21.718 30.911 22.5346C30.2857 23.1646 29.9737 23.4789 29.6251 23.5275C29.4319 23.5544 29.2351 23.5266 29.0566 23.447C28.7358 23.3039 28.521 22.9154 28.0928 22.1372L25.8317 18.0366C25.5676 17.5574 25.3466 17.1548 25.147 16.8328C25.6526 16.5722 26.0568 16.147 26.2944 15.6256C26.5319 15.1043 26.5891 14.5173 26.4566 13.9591C26.3241 13.4009 26.0097 12.9041 25.5641 12.5487C25.1184 12.1933 24.5675 12 24 12C23.4325 12 22.8816 12.1933 22.4359 12.5487C21.9903 12.9041 21.6759 13.4009 21.5434 13.9591C21.4109 14.5173 21.4681 15.1043 21.7056 15.6256C21.9432 16.147 22.3474 16.5722 22.853 16.8328C22.6534 17.1561 22.4324 17.5574 22.1671 18.0366L19.9072 22.1372C19.4777 22.9154 19.263 23.3039 18.9421 23.447C18.7637 23.5266 18.5669 23.5544 18.3737 23.5275C18.0263 23.4789 17.7143 23.1646 17.089 22.5346C16.2793 21.718 15.7411 21.175 15.3293 20.9181C15.6118 20.587 15.7739 20.1681 15.7885 19.7309C15.8032 19.2938 15.6697 18.8647 15.41 18.5149C15.1504 18.1651 14.7804 17.9157 14.3613 17.808C13.9422 17.7004 13.4993 17.7409 13.1062 17.923C12.713 18.105 12.3932 18.4176 12.1999 18.8089C12.0066 19.2001 11.9514 19.6465 12.0434 20.0738C12.1355 20.5012 12.3692 20.8839 12.7059 21.1583C13.0426 21.4328 13.4619 21.5825 13.8943 21.5826H13.9171C13.8526 22.0656 13.9347 22.8336 14.0573 23.9952L14.2897 26.1739C14.4186 27.3827 14.8354 28.9649 14.9668 30H33.0332C33.1646 28.9649 33.5814 27.384 33.7103 26.1739ZM23 36H25.5641C29.1466 36 31 36 32 35C32.5217 34.5272 32.7945 33.1079 33.0332 32H14.9668C15.2055 33.1079 15.4783 34.5285 16 35C17.089 36 19.4175 36 23 36Z" fill="white"/>
</svg>
