<svg width="18" height="17" viewBox="0 0 18 17" fill="none" xmlns="http://www.w3.org/2000/svg">
<path d="M9 16.3187C13.4183 16.3187 17 12.9731 17 8.84615C17 4.71919 13.4183 1.37363 9 1.37363C4.58172 1.37363 1 4.71919 1 8.84615C1 12.9731 4.58172 16.3187 9 16.3187Z" stroke="#D8C292" stroke-linecap="round" stroke-linejoin="round"/>
<path d="M14.4966 8.36909C14.4966 8.73031 14.2102 9.01327 13.8855 9.01327H13.2744L13.2877 12.2261C13.2877 12.2823 13.2839 12.3345 13.2782 12.3887V12.7138C13.2782 13.1573 12.9363 13.5165 12.5143 13.5165H12.2087C12.1877 13.5165 12.1667 13.4984 12.1457 13.5145C12.1189 13.4984 12.0922 13.5165 12.0655 13.5165H10.9864C10.5644 13.5165 10.2225 13.1573 10.2225 12.7138V10.9478C10.2225 10.5926 9.9494 10.3056 9.61136 10.3056H8.38909C8.05106 10.3056 7.77796 10.5926 7.77796 10.9478V12.7138C7.77796 13.1573 7.4361 13.5165 7.01403 13.5165H5.94646C5.91781 13.5165 5.88916 13.5145 5.86051 13.5125C5.8376 13.5145 5.81468 13.5165 5.79176 13.5165H5.48619C5.06432 13.5165 4.72227 13.1573 4.72227 12.7138V10.4662C4.72227 10.4481 4.72285 10.428 4.72399 10.41V9.01327H4.11209C3.76775 9.01327 3.5 8.73031 3.5 8.36909C3.5 8.18848 3.55737 8.02794 3.69117 7.88746L8.58771 3.40262C8.7214 3.26187 8.87418 3.24176 9.00787 3.24176C9.14155 3.24176 9.29434 3.28198 9.41084 3.38252L14.2866 7.88746C14.4393 8.02794 14.5176 8.18848 14.4966 8.36909Z" fill="#D8C292"/>
</svg>
