<svg width="170" height="136" viewBox="0 0 170 136" fill="none" xmlns="http://www.w3.org/2000/svg">
<rect x="1.5" y="8.5" width="167" height="126" rx="10.5" fill="#F2F2F2" stroke="#5B5B5B" stroke-width="3"/>
<mask id="path-2-inside-1_426_9954" fill="white">
<path d="M0 19C0 12.3726 5.37258 7 12 7H158C164.627 7 170 12.3726 170 19V59H0V19Z"/>
</mask>
<path d="M0 19C0 12.3726 5.37258 7 12 7H158C164.627 7 170 12.3726 170 19V59H0V19Z" fill="#B67171"/>
<path d="M-3 19C-3 10.7157 3.71573 4 12 4H158C166.284 4 173 10.7157 173 19H167C167 14.0294 162.971 10 158 10H12C7.02944 10 3 14.0294 3 19H-3ZM170 59H0H170ZM-3 59V19C-3 10.7157 3.71573 4 12 4V10C7.02944 10 3 14.0294 3 19V59H-3ZM158 4C166.284 4 173 10.7157 173 19V59H167V19C167 14.0294 162.971 10 158 10V4Z" fill="#5B5B5B" mask="url(#path-2-inside-1_426_9954)"/>
<path d="M63.872 48V44.544H67.664V34.392H64.376V31.752C66.296 31.392 67.544 30.912 68.792 30.12H71.936V44.544H75.152V48H63.872ZM83.945 48.336C80.177 48.336 77.609 45.12 77.609 38.976C77.609 32.832 80.177 29.808 83.945 29.808C87.713 29.808 90.257 32.856 90.257 38.976C90.257 45.12 87.713 48.336 83.945 48.336ZM83.945 45.024C85.217 45.024 86.225 43.872 86.225 38.976C86.225 34.104 85.217 33.072 83.945 33.072C82.673 33.072 81.641 34.104 81.641 38.976C81.641 43.872 82.673 45.024 83.945 45.024ZM100.958 39.552C99.4704 39.552 98.4144 38.4 98.4144 36.912C98.4144 35.424 99.4704 34.272 100.958 34.272C102.422 34.272 103.502 35.424 103.502 36.912C103.502 38.4 102.422 39.552 100.958 39.552ZM100.958 48.336C99.4704 48.336 98.4144 47.16 98.4144 45.672C98.4144 44.184 99.4704 43.032 100.958 43.032C102.422 43.032 103.502 44.184 103.502 45.672C103.502 47.16 102.422 48.336 100.958 48.336ZM117.953 48.336C114.185 48.336 111.617 45.12 111.617 38.976C111.617 32.832 114.185 29.808 117.953 29.808C121.721 29.808 124.265 32.856 124.265 38.976C124.265 45.12 121.721 48.336 117.953 48.336ZM117.953 45.024C119.225 45.024 120.233 43.872 120.233 38.976C120.233 34.104 119.225 33.072 117.953 33.072C116.681 33.072 115.649 34.104 115.649 38.976C115.649 43.872 116.681 45.024 117.953 45.024ZM132.578 48.336C128.81 48.336 126.242 45.12 126.242 38.976C126.242 32.832 128.81 29.808 132.578 29.808C136.346 29.808 138.89 32.856 138.89 38.976C138.89 45.12 136.346 48.336 132.578 48.336ZM132.578 45.024C133.85 45.024 134.858 43.872 134.858 38.976C134.858 34.104 133.85 33.072 132.578 33.072C131.306 33.072 130.274 34.104 130.274 38.976C130.274 43.872 131.306 45.024 132.578 45.024Z" fill="#F2F2F2"/>
<path d="M52.5249 28.5368C51.674 27.6622 50.5554 27.1253 49.3634 27.0193C48.1713 26.9133 46.9813 27.2881 46 27.9999C49.1542 29.3656 51.4712 31.8224 53 35C53.5901 33.9923 54.0981 32.8081 53.9649 31.6365C53.8317 30.4649 53.3247 29.3736 52.5249 28.5368Z" fill="#F2F2F2"/>
<path d="M38 28.0001C37.0507 27.2462 35.8581 26.9422 34.6476 27.0072C33.4371 27.0721 32.2922 27.578 31.4291 28.4292C30.5731 29.2909 30.0661 30.4388 30.0058 31.6519C29.9455 32.8651 30.2337 34.0577 31 35C32.3799 31.9297 34.9349 29.3916 38 28.0001Z" fill="#F2F2F2"/>
<path d="M41.9955 29C39.8201 29.0045 37.6947 29.6485 35.8872 30.8509C34.0796 32.0532 32.6709 33.7602 31.8385 35.7565C31.0061 37.7529 30.7873 39.9494 31.2097 42.069C31.632 44.1887 32.6767 46.1368 34.2119 47.6677L32.205 49.6611C32.1321 49.7351 32.0746 49.8225 32.0358 49.9185C31.997 50.0145 31.9775 50.1171 31.9786 50.2206C31.9797 50.324 32.0013 50.4262 32.0422 50.5214C32.0831 50.6165 32.1424 50.7027 32.2168 50.7751C32.2912 50.8475 32.3793 50.9046 32.4759 50.9432C32.5725 50.9817 32.6759 51.001 32.78 51C32.8841 50.9989 32.987 50.9774 33.0828 50.9368C33.1786 50.8962 33.2654 50.8373 33.3383 50.7634L35.4318 48.684C37.3462 50.123 39.6841 50.8964 42.0849 50.8851C44.4857 50.8738 46.816 50.0784 48.7167 48.6214L50.8731 50.7634C51.0237 50.8915 51.2173 50.9584 51.4154 50.9508C51.6135 50.9432 51.8014 50.8616 51.9415 50.7224C52.0817 50.5832 52.1638 50.3965 52.1715 50.1998C52.1791 50.0031 52.1117 49.8107 51.9828 49.6611L49.8657 47.5896C51.3794 46.0496 52.4023 44.1005 52.8065 41.986C53.2108 39.8716 52.9784 37.6857 52.1385 35.7018C51.2985 33.7179 49.8883 32.0239 48.0843 30.8319C46.2802 29.6399 44.1623 29.0027 41.9955 29ZM47.8746 42.6256C47.7844 42.8118 47.6237 42.955 47.4275 43.0238C47.2314 43.0927 47.0158 43.0816 46.8278 42.993L41.2085 40.2882V33.448C41.2085 33.2407 41.2914 33.0419 41.439 32.8953C41.5866 32.7487 41.7868 32.6663 41.9955 32.6663C42.2043 32.6663 42.4044 32.7487 42.552 32.8953C42.6996 33.0419 42.7825 33.2407 42.7825 33.448V39.311L47.5047 41.5859C47.5989 41.6288 47.6836 41.6898 47.754 41.7653C47.8244 41.8409 47.8791 41.9295 47.915 42.0261C47.9508 42.1227 47.9671 42.2254 47.9628 42.3283C47.9586 42.4312 47.934 42.5322 47.8903 42.6256H47.8746Z" fill="#F2F2F2"/>
<path d="M49.744 118V111.088H57.328V90.784H50.752V85.504C54.592 84.784 57.088 83.824 59.584 82.24H65.872V111.088H72.304V118H49.744ZM88.93 118.672C83.218 118.672 79.282 116.512 76.45 113.728L80.338 108.352C82.354 110.272 84.85 111.76 87.682 111.76C91.138 111.76 93.298 109.888 93.298 106.192C93.298 102.592 91.138 100.672 88.066 100.672C86.098 100.672 85.138 101.056 83.026 102.4L79.282 99.952L80.194 82.24H100.258V89.392H87.538L87.01 95.44C88.306 94.912 89.362 94.72 90.706 94.72C96.754 94.72 101.842 98.272 101.842 106C101.842 114.016 95.794 118.672 88.93 118.672Z" fill="#595959"/>
<path d="M30.2 106.42H38.12C37.66 105.92 36.96 105.32 36.38 104.9L37.26 104.16H35.96C35.46 104.94 34.92 105.64 34.36 106.18C33.88 105.7 32.82 104.86 32.22 104.48C32.34 104.38 32.44 104.28 32.54 104.18H30.38C30.82 104.54 31.2 104.94 31.46 105.24L30.2 106.42ZM31.3 112.7V111.9H28.74L28.64 112.7H31.3ZM37.46 109.54V108.78H34.14V109.54H37.46ZM28.44 104.18H27.52C26.98 105.02 26.4 105.78 25.8 106.42H29.26C28.8 105.92 28.18 105.32 27.66 104.88L28.44 104.18ZM42.32 102V104.16H39.32C39.74 104.48 40.12 104.82 40.38 105.1L38.86 106.42H40.32V111.9H34.14V112.7H41.48C41.48 112.7 41.46 113.36 41.42 113.7C41.26 116.3 41.04 117.64 40.52 118.22C40.04 118.76 39.5 118.94 38.84 119.02C38.26 119.1 37.3 119.12 36.28 119.1C36.24 118.26 35.9 117.16 35.46 116.46C36.24 116.54 37 116.56 37.38 116.54C37.68 116.54 37.86 116.52 38.06 116.36C38.2 116.2 38.32 115.82 38.4 115.1H34.14V119.9H31.3V116.36C29.66 117.82 27.62 119.02 25.56 119.76C25.16 119.08 24.34 118.02 23.74 117.48C25.62 116.96 27.52 116.1 29 115.1H25.42C25.72 113.6 26.02 111.38 26.16 109.54H31.3V108.78H25.44V106.76C25.02 106.24 24.1 105.26 23.56 104.8C24.7 103.8 25.8 102.24 26.4 100.7L28.96 101.46L28.72 102H32.68V104.04C33.56 103.14 34.28 101.92 34.7 100.7L37.34 101.38C37.26 101.58 37.18 101.8 37.1 102H42.32Z" fill="#595959"/>
<path d="M119.22 111.76V108.92H116.44V111.76H119.22ZM113.7 106.4H122.14V114.26H113.7V106.4ZM112.32 116.12H123.54V104.48H112.32V116.12ZM109.3 101.5H126.72V119.9H123.54V118.82H112.32V119.9H109.3V101.5ZM141.74 113.86H134.56V116.46H141.74V113.86ZM131.58 119.86V111.32H144.86V119.78H141.74V119.14H134.56V119.86H131.58ZM135.58 107.32H140.96C140.08 106.68 139.16 105.94 138.22 105.04C137.38 105.86 136.5 106.62 135.58 107.32ZM138.08 100.78L140.68 102.12L140.02 103.02C142.7 105.34 145.26 106.56 147.72 107.34C146.98 108.02 146.14 109.1 145.74 110.02C144.84 109.62 143.96 109.18 143.04 108.66V109.98H133.04V109.04C132.22 109.54 131.4 109.98 130.58 110.38C130.1 109.54 129.26 108.44 128.44 107.68C132.08 106.26 135.92 103.92 138.08 100.78Z" fill="#595959"/>
</svg>
