<svg width="224" height="224" viewBox="0 0 224 224" fill="none" xmlns="http://www.w3.org/2000/svg">
<g filter="url(#filter0_d_126_28400)">
<rect y="112" width="158.392" height="158.392" rx="40" transform="rotate(-45 0 112)" fill="#955757"/>
</g>
<rect x="11" y="107.8" width="142.553" height="142.553" rx="30" transform="rotate(-45 11 107.8)" fill="#B67171"/>
<path d="M79.7227 81.5859C83.1341 81.5859 86.3503 82.0677 89.3711 83.0312C90.7253 83.474 91.6497 83.6953 92.1445 83.6953C92.6654 83.6953 93.7591 83.3958 95.4258 82.7969C95.9727 82.6146 96.5326 82.5234 97.1055 82.5234C98.5638 82.5234 99.957 83.3828 101.285 85.1016C103.421 87.862 104.488 90.8828 104.488 94.1641C104.488 96.4036 103.915 98.2135 102.77 99.5938C101.65 100.974 100.165 101.664 98.3164 101.664C96.806 101.664 95.3216 101.117 93.8633 100.023C93.4206 99.6849 92.3398 98.4609 90.6211 96.3516C87.7565 92.8359 84.4622 91.0781 80.7383 91.0781C77.3529 91.0781 74.6576 92.3151 72.6523 94.7891C70.6732 97.263 69.6836 100.596 69.6836 104.789C69.6836 111.013 71.2721 116.312 74.4492 120.688C75.6471 122.276 77.0794 123.552 78.7461 124.516C80.4128 125.453 82.0664 125.922 83.707 125.922C85.0612 125.922 86.168 125.479 87.0273 124.594C87.9128 123.682 88.3555 122.523 88.3555 121.117C88.3555 119.867 87.9909 118.982 87.2617 118.461C86.9753 118.253 86.7018 118.135 86.4414 118.109C86.207 118.057 85.4648 118.031 84.2148 118.031C83.0951 118.031 82.1576 117.68 81.4023 116.977C80.6732 116.247 80.3086 115.336 80.3086 114.242C80.3086 112.081 81.7409 110.544 84.6055 109.633C87.7565 108.643 91.3893 108.148 95.5039 108.148C99.9049 108.148 103.603 108.604 106.598 109.516C109.436 110.401 110.855 112.003 110.855 114.32C110.855 115.258 110.53 116.078 109.879 116.781C109.228 117.458 108.382 117.862 107.34 117.992C106.428 118.122 105.829 118.331 105.543 118.617C105.283 118.878 105.009 119.542 104.723 120.609C103.603 124.75 101.415 128.214 98.1602 131C95.9206 132.901 93.2122 134.385 90.0352 135.453C86.8841 136.521 83.5638 137.055 80.0742 137.055C74.3711 137.055 69.1367 135.74 64.3711 133.109C59.4753 130.427 55.7513 126.677 53.1992 121.859C51.0638 117.849 49.9961 113.513 49.9961 108.852C49.9961 104.138 51.2721 99.6589 53.8242 95.4141C56.5326 90.8568 60.3216 87.3411 65.1914 84.8672C69.4362 82.6797 74.2799 81.5859 79.7227 81.5859ZM143.199 81.5859C149.892 81.5859 155.738 83.5 160.738 87.3281C164.124 89.9583 166.871 93.3698 168.98 97.5625C171.038 101.729 172.066 105.896 172.066 110.062C172.066 116.208 170.035 121.703 165.973 126.547C162.535 130.661 158.043 133.617 152.496 135.414C149.085 136.508 145.66 137.055 142.223 137.055C137.717 137.055 133.408 136.117 129.293 134.242C124.319 131.977 120.426 128.552 117.613 123.969C114.879 119.542 113.512 114.659 113.512 109.32C113.512 103.122 115.27 97.6536 118.785 92.9141C121.91 88.6953 126.116 85.5964 131.402 83.6172C134.944 82.263 138.876 81.5859 143.199 81.5859ZM139.488 92.7969C137.301 92.7969 135.569 93.7734 134.293 95.7266C133.303 97.1849 132.809 98.9167 132.809 100.922C132.809 103.865 133.408 107.276 134.605 111.156C135.803 115.01 137.314 118.435 139.137 121.43C139.944 122.706 140.934 123.721 142.105 124.477C143.303 125.232 144.514 125.609 145.738 125.609C147.717 125.609 149.306 124.867 150.504 123.383C151.728 121.898 152.34 119.945 152.34 117.523C152.34 114.372 151.832 110.974 150.816 107.328C149.801 103.682 148.486 100.57 146.871 97.9922C145.882 96.4036 144.736 95.1536 143.434 94.2422C142.132 93.3307 140.816 92.849 139.488 92.7969Z" fill="white"/>
<rect x="11" y="107.8" width="142.553" height="142.553" rx="30" transform="rotate(-45 11 107.8)" fill="black" fill-opacity="0.47"/>
<defs>
<filter id="filter0_d_126_28400" x="12.5684" y="16.5686" width="198.863" height="202.863" filterUnits="userSpaceOnUse" color-interpolation-filters="sRGB">
<feFlood flood-opacity="0" result="BackgroundImageFix"/>
<feColorMatrix in="SourceAlpha" type="matrix" values="0 0 0 0 0 0 0 0 0 0 0 0 0 0 0 0 0 0 127 0" result="hardAlpha"/>
<feOffset dy="8"/>
<feGaussianBlur stdDeviation="2"/>
<feComposite in2="hardAlpha" operator="out"/>
<feColorMatrix type="matrix" values="0 0 0 0 0 0 0 0 0 0 0 0 0 0 0 0 0 0 0.37 0"/>
<feBlend mode="normal" in2="BackgroundImageFix" result="effect1_dropShadow_126_28400"/>
<feBlend mode="normal" in="SourceGraphic" in2="effect1_dropShadow_126_28400" result="shape"/>
</filter>
</defs>
</svg>
