<svg width="48" height="48" viewBox="0 0 48 48" fill="none" xmlns="http://www.w3.org/2000/svg">
<circle cx="24" cy="24" r="23" fill="#5B5B5B" stroke="#D8C292" stroke-width="2"/>
<path d="M27.9971 19.5899V29.6578C27.9971 30.4549 28.0668 31.0383 28.2061 31.4079C28.357 31.7776 28.6531 32.1184 29.0943 32.4303C29.4543 32.6845 29.6923 32.904 29.8084 33.0888C29.9361 33.2621 30 33.4874 30 33.7646C30 35.2549 28.1016 36 24.3048 36C22.2612 36 20.6415 35.8383 19.4456 35.5148C19.0392 35.3993 18.7083 35.1971 18.4528 34.9083C18.209 34.6195 18.0871 34.2903 18.0871 33.9206C18.0871 33.6087 18.1509 33.3661 18.2787 33.1928C18.4064 33.0195 18.7315 32.7422 19.254 32.361C19.6139 32.0953 19.8694 31.6621 20.0203 31.0614C20.1713 30.4606 20.2467 29.5653 20.2467 28.3755C20.2467 27.9942 20.2177 27.2838 20.1597 26.244C20.1132 25.1928 20.0784 24.5805 20.0552 24.4072C19.9855 23.9336 19.6604 23.5697 19.0798 23.3155C18.3599 23.0036 18 22.5415 18 21.9292C18 21.2014 18.4702 20.6585 19.4107 20.3004C20.7112 19.8036 22.1045 19.3819 23.5907 19.0354C25.0769 18.6888 26.2264 18.5155 27.0392 18.5155C27.6778 18.5155 27.9971 18.8736 27.9971 19.5899ZM24.5486 12C25.5588 12 26.3599 12.1906 26.9521 12.5718C27.5443 12.9415 27.8403 13.444 27.8403 14.0794C27.8403 14.969 27.3933 15.6736 26.4993 16.1935C25.0827 17.0137 23.3701 17.4238 21.3614 17.4238C20.5138 17.4238 19.8403 17.2621 19.3411 16.9386C18.6676 16.5227 18.3309 15.9451 18.3309 15.2058C18.3309 14.2123 19.045 13.4325 20.4731 12.8664C21.9245 12.2888 23.283 12 24.5486 12Z" fill="white"/>
</svg>
