<svg width="48" height="48" viewBox="0 0 48 48" fill="none" xmlns="http://www.w3.org/2000/svg">
<circle cx="24" cy="24" r="23" fill="#5B5B5B" stroke="#D8C292" stroke-width="2"/>
<path d="M35.7319 18.7994L34.7341 17.2006C34.1833 16.3172 32.963 16.0154 32.0081 16.5249L31.4833 16.8055C29.4877 17.8708 26.9932 16.5388 26.9932 14.4074V13.8462C26.9932 12.8262 26.1001 12 24.9976 12H23.002C21.8994 12 21.0064 12.8262 21.0064 13.8462V14.4074C21.0064 16.5388 18.5119 17.8717 16.5163 16.8055L15.9915 16.5249C15.0366 16.0154 13.8163 16.3172 13.2655 17.2006L12.2677 18.7994C11.7169 19.6828 12.0432 20.8117 12.9981 21.3212L13.5229 21.6018C15.5185 22.668 15.5185 25.332 13.5229 26.3982L12.9981 26.6788C12.0432 27.1883 11.7169 28.3172 12.2677 29.2006L13.2655 30.7994C13.8163 31.6828 15.0366 31.9846 15.9915 31.4751L16.5163 31.1945C18.5119 30.1283 21.0064 31.4612 21.0064 33.5926V34.1538C21.0064 35.1738 21.8994 36 23.002 36H24.9976C26.1001 36 26.9932 35.1738 26.9932 34.1538V33.5926C26.9932 31.4612 29.4877 30.1283 31.4833 31.1945L32.0081 31.4751C32.963 31.9846 34.1833 31.6828 34.7341 30.7994L35.7319 29.2006C36.2827 28.3172 35.9564 27.1883 35.0015 26.6788L34.4767 26.3982C32.4811 25.332 32.4811 22.668 34.4767 21.6018L35.0015 21.3212C35.9564 20.8117 36.2837 19.6828 35.7319 18.7994Z" fill="white"/>
<path d="M24 29C26.7614 29 29 26.7614 29 24C29 21.2386 26.7614 19 24 19C21.2386 19 19 21.2386 19 24C19 26.7614 21.2386 29 24 29Z" fill="white" stroke="#5B5B5B" stroke-width="2" stroke-miterlimit="10" stroke-linecap="round" stroke-linejoin="round"/>
</svg>
